<mxfile host="app.diagrams.net" modified="2022-03-27T09:58:47.889Z" agent="5.0 (Macintosh; Intel Mac OS X 10_14_2) AppleWebKit/537.36 (KHTML, like Gecko) Chrome/99.0.4844.83 Safari/537.36" etag="y8zK5HBVhUK0KfWquQST" version="17.1.3" type="github">
  <diagram id="edh0Gr9WJt5fcmvjSIRG" name="第 1 页">
    <mxGraphModel dx="946" dy="590" grid="1" gridSize="10" guides="1" tooltips="1" connect="1" arrows="1" fold="1" page="1" pageScale="1" pageWidth="827" pageHeight="1169" math="0" shadow="0">
      <root>
        <mxCell id="0" />
        <mxCell id="1" parent="0" />
        <mxCell id="hAnMu-4EZ9WeH0H2rhAm-10" value="用户" style="shape=umlActor;verticalLabelPosition=bottom;verticalAlign=top;html=1;fontColor=#000000;" vertex="1" parent="1">
          <mxGeometry x="180" y="80" width="30" height="70" as="geometry" />
        </mxCell>
        <mxCell id="hAnMu-4EZ9WeH0H2rhAm-16" style="edgeStyle=orthogonalEdgeStyle;rounded=0;orthogonalLoop=1;jettySize=auto;html=1;entryX=0.5;entryY=0;entryDx=0;entryDy=0;fontColor=#000000;" edge="1" parent="1" source="hAnMu-4EZ9WeH0H2rhAm-13" target="hAnMu-4EZ9WeH0H2rhAm-14">
          <mxGeometry relative="1" as="geometry" />
        </mxCell>
        <mxCell id="hAnMu-4EZ9WeH0H2rhAm-13" value="切换上牌地" style="rounded=1;whiteSpace=wrap;html=1;fontColor=#000000;" vertex="1" parent="1">
          <mxGeometry x="140" y="240" width="120" height="60" as="geometry" />
        </mxCell>
        <mxCell id="hAnMu-4EZ9WeH0H2rhAm-18" style="edgeStyle=orthogonalEdgeStyle;rounded=0;orthogonalLoop=1;jettySize=auto;html=1;exitX=0.5;exitY=1;exitDx=0;exitDy=0;fontColor=#000000;" edge="1" parent="1" source="hAnMu-4EZ9WeH0H2rhAm-14" target="hAnMu-4EZ9WeH0H2rhAm-17">
          <mxGeometry relative="1" as="geometry" />
        </mxCell>
        <mxCell id="hAnMu-4EZ9WeH0H2rhAm-14" value="填写兑换码" style="rounded=1;whiteSpace=wrap;html=1;fontColor=#000000;" vertex="1" parent="1">
          <mxGeometry x="140" y="370" width="120" height="60" as="geometry" />
        </mxCell>
        <mxCell id="hAnMu-4EZ9WeH0H2rhAm-15" value="异常信息模型" style="shape=umlActor;verticalLabelPosition=bottom;verticalAlign=top;html=1;fontColor=#000000;" vertex="1" parent="1">
          <mxGeometry x="370" y="80" width="30" height="70" as="geometry" />
        </mxCell>
        <mxCell id="hAnMu-4EZ9WeH0H2rhAm-17" value="下一步" style="rounded=1;whiteSpace=wrap;html=1;fontColor=#000000;" vertex="1" parent="1">
          <mxGeometry x="140" y="490" width="120" height="60" as="geometry" />
        </mxCell>
        <mxCell id="hAnMu-4EZ9WeH0H2rhAm-20" value="异常信息模型" style="swimlane;fontStyle=1;align=center;verticalAlign=top;childLayout=stackLayout;horizontal=1;startSize=26;horizontalStack=0;resizeParent=1;resizeParentMax=0;resizeLast=0;collapsible=1;marginBottom=0;fontColor=#000000;" vertex="1" parent="1">
          <mxGeometry x="350" y="250" width="160" height="120" as="geometry">
            <mxRectangle x="350" y="250" width="100" height="26" as="alternateBounds" />
          </mxGeometry>
        </mxCell>
        <mxCell id="hAnMu-4EZ9WeH0H2rhAm-21" value="+ field: type" style="text;strokeColor=none;fillColor=none;align=left;verticalAlign=top;spacingLeft=4;spacingRight=4;overflow=hidden;rotatable=0;points=[[0,0.5],[1,0.5]];portConstraint=eastwest;fontColor=#000000;" vertex="1" parent="hAnMu-4EZ9WeH0H2rhAm-20">
          <mxGeometry y="26" width="160" height="26" as="geometry" />
        </mxCell>
        <mxCell id="hAnMu-4EZ9WeH0H2rhAm-22" value="" style="line;strokeWidth=1;fillColor=none;align=left;verticalAlign=middle;spacingTop=-1;spacingLeft=3;spacingRight=3;rotatable=0;labelPosition=right;points=[];portConstraint=eastwest;fontColor=#000000;" vertex="1" parent="hAnMu-4EZ9WeH0H2rhAm-20">
          <mxGeometry y="52" width="160" height="8" as="geometry" />
        </mxCell>
        <mxCell id="hAnMu-4EZ9WeH0H2rhAm-23" value="+ method(type): type" style="text;strokeColor=none;fillColor=none;align=left;verticalAlign=top;spacingLeft=4;spacingRight=4;overflow=hidden;rotatable=0;points=[[0,0.5],[1,0.5]];portConstraint=eastwest;fontColor=#000000;" vertex="1" parent="hAnMu-4EZ9WeH0H2rhAm-20">
          <mxGeometry y="60" width="160" height="26" as="geometry" />
        </mxCell>
        <mxCell id="hAnMu-4EZ9WeH0H2rhAm-45" value="" style="line;strokeWidth=1;fillColor=none;align=left;verticalAlign=middle;spacingTop=-1;spacingLeft=3;spacingRight=3;rotatable=0;labelPosition=right;points=[];portConstraint=eastwest;fontColor=#000000;" vertex="1" parent="hAnMu-4EZ9WeH0H2rhAm-20">
          <mxGeometry y="86" width="160" height="8" as="geometry" />
        </mxCell>
        <mxCell id="hAnMu-4EZ9WeH0H2rhAm-46" style="text;strokeColor=none;fillColor=none;align=left;verticalAlign=top;spacingLeft=4;spacingRight=4;overflow=hidden;rotatable=0;points=[[0,0.5],[1,0.5]];portConstraint=eastwest;fontColor=#000000;" vertex="1" parent="hAnMu-4EZ9WeH0H2rhAm-20">
          <mxGeometry y="94" width="160" height="26" as="geometry" />
        </mxCell>
        <mxCell id="hAnMu-4EZ9WeH0H2rhAm-40" style="text;strokeColor=none;fillColor=none;align=left;verticalAlign=top;spacingLeft=4;spacingRight=4;overflow=hidden;rotatable=0;points=[[0,0.5],[1,0.5]];portConstraint=eastwest;fontColor=#000000;container=0;" vertex="1" parent="1">
          <mxGeometry x="560" y="330" width="140" height="26" as="geometry" />
        </mxCell>
        <mxCell id="hAnMu-4EZ9WeH0H2rhAm-47" value="异常校验状态" style="rounded=1;whiteSpace=wrap;html=1;fontColor=#000000;" vertex="1" parent="1">
          <mxGeometry x="350" y="380" width="120" height="60" as="geometry" />
        </mxCell>
        <mxCell id="hAnMu-4EZ9WeH0H2rhAm-48" value="异常信息" style="rounded=1;whiteSpace=wrap;html=1;fontColor=#000000;" vertex="1" parent="1">
          <mxGeometry x="350" y="470" width="120" height="60" as="geometry" />
        </mxCell>
        <mxCell id="hAnMu-4EZ9WeH0H2rhAm-49" value="异常信息校验逻辑" style="rounded=1;whiteSpace=wrap;html=1;fontColor=#000000;" vertex="1" parent="1">
          <mxGeometry x="510" y="380" width="120" height="60" as="geometry" />
        </mxCell>
      </root>
    </mxGraphModel>
  </diagram>
</mxfile>
